<?xml version="1.0" encoding="UTF-8" standalone="no"?>
<!-- Generator: Adobe Illustrator 23.0.1, SVG Export Plug-In . SVG Version: 6.00 Build 0)  -->

<svg
   xmlns:dc="http://purl.org/dc/elements/1.1/"
   xmlns:cc="http://creativecommons.org/ns#"
   xmlns:rdf="http://www.w3.org/1999/02/22-rdf-syntax-ns#"
   xmlns:svg="http://www.w3.org/2000/svg"
   xmlns="http://www.w3.org/2000/svg"
   xmlns:sodipodi="http://sodipodi.sourceforge.net/DTD/sodipodi-0.dtd"
   xmlns:inkscape="http://www.inkscape.org/namespaces/inkscape"
   version="1.1"
   id="NO_STRAP"
   x="0px"
   y="0px"
   viewBox="0 0 68.05 33.090002"
   xml:space="preserve"
   sodipodi:docname="landscape.svg"
   width="68.050003"
   height="33.09"
   inkscape:version="0.92.4 (5da689c313, 2019-01-14)"><metadata
   id="metadata199"><rdf:RDF><cc:Work
       rdf:about=""><dc:format>image/svg+xml</dc:format><dc:type
         rdf:resource="http://purl.org/dc/dcmitype/StillImage" /><dc:title></dc:title></cc:Work></rdf:RDF></metadata><defs
   id="defs197" /><sodipodi:namedview
   pagecolor="#ffffff"
   bordercolor="#888888"
   borderopacity="1"
   objecttolerance="10"
   gridtolerance="10"
   guidetolerance="10"
   inkscape:pageopacity="0"
   inkscape:pageshadow="2"
   inkscape:window-width="1280"
   inkscape:window-height="940"
   id="namedview195"
   showgrid="false"
   inkscape:pagecheckerboard="true"
   inkscape:zoom="4.0073372"
   inkscape:cx="33.905001"
   inkscape:cy="16.555001"
   inkscape:window-x="1276"
   inkscape:window-y="-4"
   inkscape:window-maximized="1"
   inkscape:current-layer="NO_STRAP" />
<style
   type="text/css"
   id="style2">
	.st0{fill:#FFFFFF;}
</style>
<g
   id="g192"
   transform="translate(-1.53,-1.89)">
	<polygon
   class="st0"
   points="28.57,21.23 25.47,27.91 25.47,28.31 25.47,30.27 29.85,26.94 27.89,27.43 31.56,20.36 29.62,21.72 30.02,12.77 28.57,15.53 27.04,11.01 26.59,13.03 26.57,13.15 23.12,10.1 24.67,14.14 22.49,13.68 24.99,16.25 26.28,13.69 26.75,22.29 "
   id="polygon4"
   style="fill:#ffffff" />
	<polygon
   class="st0"
   points="25.09,16.94 22.46,14.24 23.51,17.9 21.61,17.34 24.74,23.55 22.5,23.08 25.05,27.84 27.64,22.25 26.38,22.99 25.95,15.25 "
   id="polygon6"
   style="fill:#ffffff" />
	<polygon
   class="st0"
   points="4.53,21.23 7.62,27.91 7.62,28.31 7.62,30.27 3.25,26.94 5.21,27.43 1.53,20.36 3.48,21.72 3.07,12.77 4.52,15.53 6.05,11.01 6.5,13.03 6.53,13.15 9.97,10.1 8.43,14.14 10.61,13.68 8.11,16.25 6.82,13.69 6.35,22.29 "
   id="polygon8"
   style="fill:#ffffff" />
	<polygon
   class="st0"
   points="8,16.94 10.63,14.24 9.59,17.9 11.49,17.34 8.36,23.55 10.59,23.08 8.05,27.84 5.45,22.25 6.72,22.99 7.15,15.25 "
   id="polygon10"
   style="fill:#ffffff" />
	<polygon
   class="st0"
   points="15.67,28.62 15.55,28.71 15.87,29.36 15.87,30.78 16.01,30.83 16.55,31.03 17.13,30.81 17.27,30.76 17.27,29.36 17.58,28.73 17.46,28.64 16.55,27.93 "
   id="polygon12"
   style="fill:#ffffff" />
	<path
   class="st0"
   d="m 16.94,27.78 2.53,1.98 -1.2,-2.26 c -0.42,0.14 -0.87,0.24 -1.33,0.28 z"
   id="path14"
   inkscape:connector-curvature="0"
   style="fill:#ffffff" />
	<path
   class="st0"
   d="m 20.35,28.51 -1.07,-1.54 c -0.24,0.16 -0.51,0.31 -0.78,0.43 z"
   id="path16"
   inkscape:connector-curvature="0"
   style="fill:#ffffff" />
	<path
   class="st0"
   d="m 14.83,27.49 -1.2,2.26 2.53,-1.98 c -0.47,-0.03 -0.91,-0.13 -1.33,-0.28 z"
   id="path18"
   inkscape:connector-curvature="0"
   style="fill:#ffffff" />
	<path
   class="st0"
   d="M 14.59,27.39 C 14.32,27.27 14.06,27.13 13.81,26.96 L 12.74,28.5 Z"
   id="path20"
   inkscape:connector-curvature="0"
   style="fill:#ffffff" />
	<path
   class="st0"
   d="m 15.5,20.39 c -0.17,-0.23 -0.35,-0.44 -0.54,-0.66 -0.19,0.21 -0.37,0.43 -0.54,0.66 0.2,0.28 0.37,0.56 0.54,0.86 0.17,-0.3 0.35,-0.58 0.54,-0.86 z"
   id="path22"
   inkscape:connector-curvature="0"
   style="fill:#ffffff" />
	<path
   class="st0"
   d="m 13.92,20.39 c -0.19,-0.25 -0.38,-0.49 -0.6,-0.72 -0.2,0.2 -0.37,0.41 -0.53,0.64 0.22,0.3 0.42,0.62 0.59,0.93 0.16,-0.29 0.35,-0.57 0.54,-0.85 z"
   id="path24"
   inkscape:connector-curvature="0"
   style="fill:#ffffff" />
	<path
   class="st0"
   d="m 19.47,19.39 c -0.09,-0.07 -0.18,-0.14 -0.27,-0.21 -0.26,0.1 -0.52,0.19 -0.79,0.25 0.18,0.2 0.35,0.4 0.51,0.61 0.17,-0.22 0.36,-0.44 0.55,-0.65 z"
   id="path26"
   inkscape:connector-curvature="0"
   style="fill:#ffffff" />
	<path
   class="st0"
   d="m 17.12,23.56 c -0.16,-0.47 -0.35,-0.95 -0.57,-1.42 -0.23,0.47 -0.42,0.96 -0.57,1.42 0.28,0.85 0.46,1.67 0.57,2.36 0.11,-0.7 0.29,-1.51 0.57,-2.36 z"
   id="path28"
   inkscape:connector-curvature="0"
   style="fill:#ffffff" />
	<path
   class="st0"
   d="m 21.1,22.88 c 0,-0.21 -0.01,-0.42 -0.04,-0.62 -0.16,0.35 -0.3,0.69 -0.43,1.04 0.1,0.3 0.2,0.6 0.28,0.89 0.12,-0.42 0.19,-0.86 0.19,-1.31 z"
   id="path30"
   inkscape:connector-curvature="0"
   style="fill:#ffffff" />
	<path
   class="st0"
   d="m 17.9,21.67 c -0.17,-0.32 -0.35,-0.63 -0.56,-0.93 -0.21,0.3 -0.39,0.62 -0.56,0.93 0.22,0.42 0.4,0.85 0.56,1.27 0.16,-0.42 0.34,-0.84 0.56,-1.27 z"
   id="path32"
   inkscape:connector-curvature="0"
   style="fill:#ffffff" />
	<path
   class="st0"
   d="m 13.15,21.67 c -0.18,-0.33 -0.38,-0.66 -0.6,-0.98 -0.16,0.29 -0.29,0.59 -0.38,0.92 0.19,0.36 0.36,0.74 0.51,1.1 0.14,-0.35 0.29,-0.69 0.47,-1.04 z"
   id="path34"
   inkscape:connector-curvature="0"
   style="fill:#ffffff" />
	<path
   class="st0"
   d="m 17.72,19.58 c -0.23,0.03 -0.46,0.06 -0.69,0.08 0.11,0.13 0.21,0.26 0.31,0.39 0.12,-0.16 0.25,-0.32 0.38,-0.47 z"
   id="path36"
   inkscape:connector-curvature="0"
   style="fill:#ffffff" />
	<path
   class="st0"
   d="m 20.42,23.95 c -0.21,0.7 -0.36,1.37 -0.46,1.95 0.28,-0.32 0.52,-0.67 0.7,-1.06 -0.07,-0.29 -0.15,-0.59 -0.24,-0.89 z"
   id="path38"
   inkscape:connector-curvature="0"
   style="fill:#ffffff" />
	<path
   class="st0"
   d="m 11.99,22.88 c 0,0.45 0.07,0.89 0.19,1.3 0.08,-0.29 0.18,-0.59 0.28,-0.89 -0.12,-0.34 -0.26,-0.69 -0.43,-1.04 -0.02,0.21 -0.04,0.42 -0.04,0.63 z"
   id="path40"
   inkscape:connector-curvature="0"
   style="fill:#ffffff" />
	<path
   class="st0"
   d="m 18.67,20.39 c -0.17,-0.23 -0.35,-0.44 -0.54,-0.66 -0.19,0.21 -0.37,0.43 -0.54,0.66 0.2,0.28 0.37,0.57 0.54,0.86 0.17,-0.29 0.34,-0.58 0.54,-0.86 z"
   id="path42"
   inkscape:connector-curvature="0"
   style="fill:#ffffff" />
	<path
   class="st0"
   d="m 12.68,23.94 c -0.09,0.31 -0.18,0.6 -0.24,0.89 0.19,0.39 0.42,0.74 0.7,1.06 -0.1,-0.57 -0.25,-1.24 -0.46,-1.95 z"
   id="path44"
   inkscape:connector-curvature="0"
   style="fill:#ffffff" />
	<path
   class="st0"
   d="m 17.09,20.39 c -0.17,-0.23 -0.35,-0.44 -0.54,-0.66 -0.19,0.21 -0.37,0.43 -0.54,0.66 0.2,0.28 0.37,0.57 0.54,0.86 0.16,-0.29 0.34,-0.58 0.54,-0.86 z"
   id="path46"
   inkscape:connector-curvature="0"
   style="fill:#ffffff" />
	<path
   class="st0"
   d="m 18.7,23.56 c -0.16,-0.47 -0.35,-0.95 -0.57,-1.42 -0.23,0.47 -0.42,0.96 -0.57,1.42 0.28,0.85 0.46,1.67 0.57,2.36 0.12,-0.7 0.3,-1.51 0.57,-2.36 z"
   id="path48"
   inkscape:connector-curvature="0"
   style="fill:#ffffff" />
	<path
   class="st0"
   d="m 18.39,27.04 c 0.35,-0.16 0.68,-0.36 0.98,-0.6 -0.09,-0.63 -0.23,-1.38 -0.46,-2.19 -0.3,1.1 -0.45,2.09 -0.52,2.79 z"
   id="path50"
   inkscape:connector-curvature="0"
   style="fill:#ffffff" />
	<path
   class="st0"
   d="m 19.48,21.68 c -0.17,-0.32 -0.35,-0.63 -0.56,-0.93 -0.21,0.3 -0.39,0.62 -0.56,0.93 0.21,0.42 0.4,0.85 0.56,1.26 0.16,-0.42 0.35,-0.84 0.56,-1.26 z"
   id="path52"
   inkscape:connector-curvature="0"
   style="fill:#ffffff" />
	<path
   class="st0"
   d="m 16.32,21.67 c -0.17,-0.32 -0.35,-0.63 -0.56,-0.93 -0.21,0.3 -0.39,0.62 -0.56,0.93 0.22,0.42 0.4,0.85 0.56,1.27 0.15,-0.42 0.34,-0.84 0.56,-1.27 z"
   id="path54"
   inkscape:connector-curvature="0"
   style="fill:#ffffff" />
	<path
   class="st0"
   d="m 13.96,23.56 c -0.16,-0.47 -0.35,-0.95 -0.57,-1.42 -0.19,0.39 -0.35,0.78 -0.48,1.16 0.26,0.75 0.44,1.48 0.57,2.13 0.1,-0.59 0.26,-1.22 0.48,-1.87 z"
   id="path56"
   inkscape:connector-curvature="0"
   style="fill:#ffffff" />
	<path
   class="st0"
   d="m 15.54,23.56 c -0.16,-0.47 -0.35,-0.95 -0.57,-1.42 -0.23,0.47 -0.42,0.95 -0.57,1.42 0.28,0.85 0.46,1.67 0.57,2.36 0.11,-0.7 0.29,-1.51 0.57,-2.36 z"
   id="path58"
   inkscape:connector-curvature="0"
   style="fill:#ffffff" />
	<path
   class="st0"
   d="m 14.73,21.67 c -0.17,-0.32 -0.35,-0.63 -0.56,-0.93 -0.21,0.3 -0.39,0.62 -0.56,0.93 0.22,0.42 0.4,0.85 0.56,1.26 0.16,-0.41 0.35,-0.83 0.56,-1.26 z"
   id="path60"
   inkscape:connector-curvature="0"
   style="fill:#ffffff" />
	<path
   class="st0"
   d="m 16.07,19.66 c -0.24,-0.01 -0.47,-0.04 -0.69,-0.08 0.13,0.15 0.26,0.31 0.38,0.46 0.1,-0.13 0.2,-0.26 0.31,-0.38 z"
   id="path62"
   inkscape:connector-curvature="0"
   style="fill:#ffffff" />
	<path
   class="st0"
   d="m 14.17,20.05 c 0.16,-0.21 0.33,-0.41 0.51,-0.61 -0.27,-0.07 -0.53,-0.16 -0.79,-0.25 -0.09,0.07 -0.19,0.14 -0.27,0.21 0.2,0.2 0.38,0.42 0.55,0.65 z"
   id="path64"
   inkscape:connector-curvature="0"
   style="fill:#ffffff" />
	<path
   class="st0"
   d="m 20.42,22.71 c 0.15,-0.37 0.32,-0.74 0.51,-1.11 -0.09,-0.32 -0.22,-0.63 -0.38,-0.92 -0.22,0.32 -0.42,0.65 -0.6,0.98 0.17,0.36 0.33,0.71 0.47,1.05 z"
   id="path66"
   inkscape:connector-curvature="0"
   style="fill:#ffffff" />
	<path
   class="st0"
   d="m 19.71,21.24 c 0.18,-0.32 0.38,-0.63 0.59,-0.93 -0.16,-0.23 -0.34,-0.45 -0.53,-0.64 -0.22,0.23 -0.42,0.47 -0.6,0.72 0.2,0.28 0.38,0.56 0.54,0.85 z"
   id="path68"
   inkscape:connector-curvature="0"
   style="fill:#ffffff" />
	<path
   class="st0"
   d="m 19.14,23.56 c 0.22,0.66 0.37,1.29 0.48,1.87 0.13,-0.65 0.31,-1.38 0.57,-2.13 -0.14,-0.38 -0.3,-0.78 -0.48,-1.16 -0.22,0.47 -0.41,0.95 -0.57,1.42 z"
   id="path70"
   inkscape:connector-curvature="0"
   style="fill:#ffffff" />
	<path
   class="st0"
   d="m 17.34,24.26 c -0.37,1.31 -0.51,2.48 -0.56,3.17 0.38,-0.02 0.76,-0.09 1.11,-0.19 -0.07,-0.71 -0.21,-1.79 -0.55,-2.98 z"
   id="path72"
   inkscape:connector-curvature="0"
   style="fill:#ffffff" />
	<path
   class="st0"
   d="m 16.32,27.43 c -0.05,-0.69 -0.19,-1.86 -0.56,-3.17 -0.34,1.2 -0.48,2.27 -0.54,2.98 0.34,0.1 0.71,0.17 1.1,0.19 z"
   id="path74"
   inkscape:connector-curvature="0"
   style="fill:#ffffff" />
	<path
   class="st0"
   d="m 14.7,27.04 c -0.07,-0.7 -0.22,-1.69 -0.53,-2.79 -0.23,0.81 -0.37,1.57 -0.45,2.19 0.29,0.24 0.63,0.45 0.98,0.6 z"
   id="path76"
   inkscape:connector-curvature="0"
   style="fill:#ffffff" />
	<line
   class="st0"
   x1="16.76"
   y1="27.74"
   x2="16.76"
   y2="27.74"
   id="line78"
   style="fill:#ffffff" />
	<path
   class="st0"
   d="M 15.19,27.44 Z"
   id="path80"
   inkscape:connector-curvature="0"
   style="fill:#ffffff" />
	<line
   class="st0"
   x1="13.69"
   y1="26.610001"
   x2="13.69"
   y2="26.610001"
   id="line82"
   style="fill:#ffffff" />
	<line
   class="st0"
   x1="12.41"
   y1="24.959999"
   x2="12.41"
   y2="24.959999"
   id="line84"
   style="fill:#ffffff" />
	<path
   class="st0"
   d="m 14.06,14.68 -0.34,0.71 -0.75,-0.63 1.78,4.32 c 0.12,0.03 0.24,0.06 0.36,0.09 z"
   id="path86"
   inkscape:connector-curvature="0"
   style="fill:#ffffff" />
	<path
   class="st0"
   d="m 15.59,14.64 -0.44,0.71 -0.67,-0.67 1.07,4.57 c 0.13,0.02 0.26,0.03 0.39,0.04 z"
   id="path88"
   inkscape:connector-curvature="0"
   style="fill:#ffffff" />
	<path
   class="st0"
   d="m 12.53,14.78 -0.2,0.69 -0.91,-0.6 2.49,3.92 c 0.11,0.04 0.21,0.08 0.32,0.12 z"
   id="path90"
   inkscape:connector-curvature="0"
   style="fill:#ffffff" />
	<path
   class="st0"
   d="m 17.11,14.63 -0.56,0.71 -0.55,-0.69 0.35,4.66 c 0.07,0 0.13,0 0.2,0 0.07,0 0.13,0 0.2,0 z"
   id="path92"
   inkscape:connector-curvature="0"
   style="fill:#ffffff" />
	<path
   class="st0"
   d="M 20.15,14.74 19.37,15.39 19.05,14.71 18,19.17 c 0.12,-0.02 0.24,-0.05 0.36,-0.09 z"
   id="path94"
   inkscape:connector-curvature="0"
   style="fill:#ffffff" />
	<path
   class="st0"
   d="m 18.64,14.65 -0.7,0.7 -0.42,-0.68 -0.35,4.62 c 0.13,-0.01 0.26,-0.02 0.39,-0.04 z"
   id="path96"
   inkscape:connector-curvature="0"
   style="fill:#ffffff" />
	<path
   class="st0"
   d="m 20.56,14.81 -1.69,4.11 c 0.11,-0.04 0.22,-0.08 0.32,-0.12 l 2.5,-3.94 -0.94,0.62 z"
   id="path98"
   inkscape:connector-curvature="0"
   style="fill:#ffffff" />
	<polygon
   class="st0"
   points="11.31,27.17 8.73,28.13 11.31,29.08 "
   id="polygon100"
   style="fill:#ffffff" />
	<polygon
   class="st0"
   points="21.79,27.17 21.79,29.08 24.36,28.13 "
   id="polygon102"
   style="fill:#ffffff" />
	<path
   class="st0"
   d="m 15.47,32.47 -0.15,-0.05 -0.11,0.3 0.19,0.07 c 0.02,0.01 0.04,0.01 0.07,0.01 0.08,0 0.12,-0.06 0.14,-0.11 0.01,-0.04 0.03,-0.11 -0.01,-0.15 -0.03,-0.02 -0.05,-0.04 -0.13,-0.07 z"
   id="path104"
   inkscape:connector-curvature="0"
   style="fill:#ffffff" />
	<path
   class="st0"
   d="m 25.06,31.82 v -3.51 l -8.51,3.16 -8.51,-3.16 v 3.51 l 8.51,3.16 z m -2.2,-1.57 c 0.08,-0.03 0.15,-0.04 0.24,-0.04 v 0 c 0.29,0 0.54,0.18 0.64,0.45 0.13,0.36 -0.04,0.76 -0.4,0.89 -0.08,0.03 -0.15,0.04 -0.23,0.04 -0.29,0 -0.54,-0.19 -0.65,-0.46 -0.06,-0.17 -0.05,-0.36 0.02,-0.52 0.07,-0.18 0.21,-0.3 0.38,-0.36 z m -1.49,0.56 0.11,-0.04 0.07,-0.03 0.03,0.07 0.34,0.94 0.44,-0.16 0.07,-0.03 0.03,0.07 0.03,0.1 0.03,0.07 -0.07,0.03 -0.62,0.23 -0.07,0.03 -0.03,-0.07 -0.4,-1.11 -0.03,-0.07 z m -0.67,0.24 0.11,-0.04 0.07,-0.02 0.03,0.07 0.4,1.11 0.03,0.07 -0.07,0.03 -0.11,0.04 -0.07,0.03 -0.03,-0.07 -0.4,-1.11 -0.03,-0.07 z m -1.34,0.68 c 0.08,-0.16 0.21,-0.29 0.38,-0.35 0.09,-0.03 0.19,-0.05 0.27,-0.05 0.13,0 0.21,0.03 0.22,0.04 l 0.06,0.03 -0.02,0.07 -0.03,0.1 -0.02,0.08 -0.08,-0.03 c 0,0 -0.06,-0.02 -0.14,-0.02 -0.06,0 -0.12,0.01 -0.18,0.03 -0.22,0.08 -0.32,0.31 -0.23,0.54 0.07,0.18 0.21,0.29 0.38,0.29 0.04,0 0.09,-0.01 0.13,-0.02 0.14,-0.05 0.21,-0.17 0.23,-0.22 l -0.03,-0.09 -0.11,0.04 -0.07,0.02 -0.03,-0.07 -0.03,-0.1 -0.03,-0.07 0.07,-0.02 0.29,-0.11 0.07,-0.03 0.03,0.07 0.19,0.53 0.03,0.07 -0.07,0.03 -0.1,0.04 -0.07,0.03 -0.02,-0.06 c -0.05,0.07 -0.14,0.14 -0.26,0.18 -0.07,0.03 -0.15,0.04 -0.22,0.04 -0.28,0 -0.53,-0.18 -0.63,-0.46 -0.06,-0.18 -0.05,-0.37 0.02,-0.53 z m -0.76,0.09 0.11,-0.04 0.07,-0.03 0.03,0.07 0.4,1.11 0.03,0.07 -0.08,0.02 -0.11,0.04 -0.07,0.02 -0.03,-0.07 -0.4,-1.11 -0.03,-0.08 z m -1.35,0.49 0.12,-0.04 0.05,-0.02 0.03,0.04 0.57,0.67 v -0.88 -0.06 l 0.05,-0.02 0.12,-0.04 0.1,-0.04 v 0.11 l -0.01,1.26 v 0.05 l -0.05,0.02 -0.11,0.04 -0.05,0.02 -0.03,-0.04 -0.81,-0.96 -0.07,-0.09 z M 9.86,31.13 C 9.8,31.29 9.66,31.38 9.49,31.38 9.43,31.38 9.37,31.37 9.31,31.35 9.05,31.25 8.97,31.04 8.97,31.03 L 8.95,30.97 9,30.95 9.1,30.89 9.18,30.84 9.21,30.92 c 0,0 0.06,0.13 0.2,0.19 0.02,0.01 0.05,0.01 0.08,0.01 0.03,0 0.09,-0.01 0.12,-0.08 0.03,-0.08 -0.02,-0.14 -0.14,-0.25 -0.13,-0.12 -0.29,-0.27 -0.2,-0.5 0.05,-0.15 0.2,-0.25 0.38,-0.25 0.06,0 0.12,0.01 0.18,0.03 0.22,0.08 0.3,0.25 0.3,0.26 l 0.02,0.05 -0.04,0.04 -0.09,0.07 -0.08,0.06 -0.04,-0.09 c 0,0 -0.05,-0.11 -0.16,-0.15 C 9.71,30.3 9.69,30.3 9.66,30.3 c -0.06,0 -0.11,0.03 -0.13,0.07 -0.02,0.07 0.03,0.12 0.14,0.23 0.1,0.12 0.28,0.29 0.19,0.53 z m 1.05,0.02 -0.04,0.1 -0.03,0.07 -0.07,-0.03 -0.35,-0.13 -0.1,0.26 0.47,0.18 0.07,0.03 -0.03,0.07 -0.04,0.1 -0.03,0.07 L 10.69,31.84 10.04,31.6 9.97,31.57 10,31.5 l 0.41,-1.11 0.03,-0.07 0.07,0.03 0.62,0.23 0.07,0.03 -0.03,0.07 -0.04,0.1 -0.03,0.07 -0.07,-0.03 -0.44,-0.16 -0.1,0.26 0.35,0.13 0.07,0.03 z m 1.33,1.27 -0.08,-0.03 -0.11,-0.04 -0.07,-0.02 0.02,-0.07 0.18,-0.64 -0.36,0.36 -0.03,0.03 L 11.75,32 11.65,31.96 11.6,31.94 v -0.05 l -0.04,-0.52 -0.28,0.6 -0.03,0.07 -0.07,-0.02 -0.11,-0.04 -0.08,-0.03 0.03,-0.08 0.5,-1.08 0.03,-0.07 0.07,0.02 0.11,0.04 0.05,0.02 v 0.05 l 0.05,0.73 0.51,-0.53 0.03,-0.03 0.05,0.02 0.11,0.04 0.07,0.03 -0.02,0.07 -0.32,1.14 z m 1.08,-0.13 c -0.06,0 -0.11,-0.01 -0.17,-0.03 l -0.2,-0.08 -0.13,0.36 -0.03,0.07 -0.07,-0.03 -0.11,-0.04 -0.07,-0.03 0.03,-0.07 0.41,-1.11 0.02,-0.06 0.07,0.03 0.38,0.14 c 0.12,0.04 0.21,0.12 0.25,0.22 0.05,0.1 0.05,0.22 0.01,0.34 -0.06,0.19 -0.2,0.29 -0.39,0.29 z m 1.24,0.22 -0.03,0.1 -0.03,0.07 -0.07,-0.03 -0.35,-0.13 -0.1,0.26 0.47,0.18 0.07,0.03 -0.03,0.07 -0.03,0.1 -0.03,0.07 -0.07,-0.03 -0.65,-0.24 -0.07,-0.03 0.03,-0.07 0.41,-1.11 0.03,-0.07 0.07,0.03 0.63,0.23 0.07,0.03 -0.03,0.07 -0.04,0.1 -0.03,0.07 -0.07,-0.03 -0.44,-0.16 -0.1,0.26 0.35,0.13 0.07,0.03 z m 1,0.54 0.07,0.51 0.02,0.13 -0.12,-0.04 -0.12,-0.05 -0.04,-0.02 -0.01,-0.04 -0.07,-0.51 -0.16,-0.06 -0.15,0.4 -0.03,0.07 -0.07,-0.03 -0.11,-0.04 -0.07,-0.03 0.03,-0.07 0.41,-1.11 0.03,-0.07 0.07,0.03 0.33,0.12 c 0.11,0.04 0.17,0.08 0.22,0.12 0.11,0.11 0.14,0.27 0.08,0.43 -0.07,0.13 -0.18,0.23 -0.31,0.26 z"
   id="path106"
   inkscape:connector-curvature="0"
   style="fill:#ffffff" />
	<path
   class="st0"
   d="m 13.35,31.68 -0.19,-0.07 -0.12,0.33 0.19,0.07 c 0.03,0.01 0.05,0.02 0.08,0.02 0.09,0 0.13,-0.07 0.15,-0.12 0.02,-0.05 0.02,-0.1 0,-0.13 -0.01,-0.04 -0.05,-0.08 -0.11,-0.1 z"
   id="path108"
   inkscape:connector-curvature="0"
   style="fill:#ffffff" />
	<path
   class="st0"
   d="m 22.72,30.7 c -0.04,0.1 -0.05,0.21 -0.01,0.32 0.07,0.18 0.22,0.3 0.4,0.3 0.04,0 0.09,-0.01 0.13,-0.02 0.21,-0.08 0.31,-0.32 0.23,-0.55 -0.06,-0.17 -0.21,-0.28 -0.38,-0.28 -0.04,0 -0.09,0.01 -0.14,0.02 -0.1,0.04 -0.18,0.12 -0.23,0.21 z"
   id="path110"
   inkscape:connector-curvature="0"
   style="fill:#ffffff" />
	<g
   id="g116">
		<line
   class="st0"
   x1="18.940001"
   y1="12.63"
   x2="18.940001"
   y2="12.63"
   id="line112"
   style="fill:#ffffff" />
		<path
   class="st0"
   d="M 22.1,12.28 V 12.14 L 22.05,12.13 C 22.01,12.12 21.97,12.12 21.93,12.11 L 23.66,8.38 22.77,8.45 C 22.72,8.32 22.65,8.15 22.56,7.98 L 22.38,6.7 21.89,7.06 C 21.75,6.93 21.59,6.8 21.41,6.69 21.31,6.62 21.2,6.57 21.09,6.51 L 20.16,5.58 19.98,6.13 C 19.57,6.04 19.2,6 18.92,5.98 L 17.8,5.4 V 5.97 H 17.08 C 17.33,5.8 17.49,5.52 17.49,5.19 17.49,4.76 17.2,4.4 16.81,4.29 V 4 c 0.07,0.08 0.17,0.12 0.28,0.12 0.21,0 0.38,-0.17 0.38,-0.38 v 0 c 0,-0.11 -0.05,-0.21 -0.12,-0.28 h 0.01 c 0.07,0.08 0.17,0.13 0.29,0.13 0.21,0 0.38,-0.18 0.38,-0.39 0,-0.21 -0.17,-0.38 -0.38,-0.38 -0.11,0 -0.21,0.05 -0.29,0.13 h -0.01 c 0.07,-0.07 0.12,-0.17 0.12,-0.28 v 0 c 0,-0.21 -0.17,-0.38 -0.38,-0.38 -0.06,0 -0.11,0.01 -0.16,0.03 0,-0.02 0,-0.03 0,-0.05 0,-0.21 -0.17,-0.38 -0.39,-0.38 -0.21,0 -0.38,0.18 -0.38,0.38 0,0.02 0,0.03 0,0.05 C 16.11,2.3 16.06,2.29 16,2.29 c -0.21,0 -0.38,0.17 -0.38,0.38 v 0 c 0,0.11 0.04,0.21 0.12,0.28 H 15.73 C 15.66,2.87 15.56,2.82 15.44,2.82 15.23,2.82 15.06,3 15.06,3.2 c 0,0.2 0.17,0.39 0.38,0.39 0.11,0 0.21,-0.05 0.29,-0.13 h 0.01 c -0.08,0.07 -0.12,0.17 -0.12,0.28 v 0 c 0,0.21 0.17,0.39 0.38,0.39 0.11,0 0.21,-0.04 0.28,-0.12 v 0.3 c -0.39,0.11 -0.68,0.47 -0.68,0.9 0,0.32 0.16,0.61 0.41,0.78 H 15.3 V 5.41 L 14.17,5.99 C 13.9,6.01 13.53,6.05 13.12,6.14 L 12.94,5.59 12.01,6.52 C 11.9,6.57 11.79,6.63 11.69,6.7 11.51,6.81 11.35,6.93 11.21,7.07 L 10.72,6.71 10.53,7.99 c -0.1,0.19 -0.17,0.36 -0.22,0.5 l -0.88,-0.1 1.74,3.73 c -0.04,0 -0.08,0.01 -0.12,0.02 L 11,12.15 v 0.05 0.09 c -0.11,0.02 -0.19,0.12 -0.23,0.22 -0.05,0.12 -0.08,0.27 -0.08,0.44 0,0 0,0.01 0,0.01 0,0.16 0.03,0.32 0.09,0.44 0.05,0.1 0.12,0.19 0.23,0.22 v 0.16 l 0.07,-0.01 c 1.61,-0.25 4.54,-0.29 5.48,-0.29 0.94,0 3.88,0.04 5.48,0.29 l 0.07,0.01 V 13.6 c 0.11,-0.02 0.18,-0.12 0.23,-0.22 0.05,-0.12 0.09,-0.27 0.09,-0.44 0,-0.01 0,-0.01 0,-0.01 0,-0.17 -0.03,-0.32 -0.09,-0.44 -0.06,-0.1 -0.13,-0.19 -0.24,-0.21 z m -0.74,0.55 c 0,0.19 -0.15,0.34 -0.34,0.34 -0.19,0 -0.34,-0.15 -0.34,-0.34 0,-0.19 0.15,-0.34 0.34,-0.34 0.19,0 0.34,0.15 0.34,0.34 z m -0.91,-0.14 c 0,0.01 0,0.01 0,0.02 -0.01,0.2 -0.19,0.35 -0.4,0.35 0,0 0,0 0,0 -0.01,0 -0.01,0 -0.02,0 l -0.77,-0.04 c -0.21,-0.01 -0.38,-0.17 -0.38,-0.37 0,-0.01 0,-0.01 0,-0.02 v 0 c 0.01,-0.2 0.19,-0.35 0.4,-0.35 0.01,0 0.02,0 0.02,0 l 0.77,0.04 c 0.21,0.01 0.38,0.17 0.38,0.37 z m -1.96,-0.12 c 0,0.19 -0.15,0.34 -0.34,0.34 -0.19,0 -0.34,-0.15 -0.34,-0.34 0,-0.19 0.15,-0.34 0.34,-0.34 0.19,0.01 0.34,0.16 0.34,0.34 z m -6.5,-2.1 -0.6,-1.35 -0.52,0.24 c 0.04,-0.16 0.11,-0.37 0.2,-0.59 0.21,-0.52 0.54,-1.12 1.01,-1.42 0.72,-0.46 1.26,-0.62 2.22,-0.66 0.21,-0.01 0.51,-0.01 0.81,-0.01 0.31,0 0.63,0 0.87,0 l 0.14,1.77 v 0 l 0.02,0.32 0.03,0.36 H 15.4 v 1.67 l 0.82,-1.02 0.08,1.03 -0.88,0.5 -0.34,-0.34 c 0.07,-0.07 0.11,-0.16 0.11,-0.27 0,-0.22 -0.18,-0.39 -0.39,-0.39 -0.21,0 -0.39,0.18 -0.39,0.39 0,0.09 0.03,0.18 0.09,0.24 L 14,11.34 13.43,10.75 13.7,10.4 13.37,9.81 14.03,10 l 0.4,-0.49 -0.5,-0.38 -0.59,0.33 0.19,-0.65 -0.49,-0.4 -0.38,0.5 0.33,0.59 -0.65,-0.19 -0.4,0.49 0.5,0.38 0.59,-0.33 -0.19,0.65 0.33,0.26 -0.41,0.64 -0.26,-0.17 c 0.04,-0.06 0.06,-0.13 0.06,-0.21 0,-0.22 -0.18,-0.39 -0.39,-0.39 -0.21,0 -0.39,0.18 -0.39,0.39 0,0.11 0.05,0.21 0.12,0.29 L 11.53,11.72 10.99,10.2 Z M 18,6.68 c 0.31,0 0.6,0 0.81,0.01 0.96,0.04 1.49,0.2 2.22,0.66 0.47,0.3 0.8,0.9 1.01,1.42 0.09,0.22 0.15,0.42 0.2,0.59 l -0.52,-0.24 -0.6,1.35 0.99,-0.27 -0.54,1.52 -0.37,-0.41 c 0.08,-0.07 0.12,-0.17 0.12,-0.29 0,-0.22 -0.18,-0.39 -0.39,-0.39 -0.21,0 -0.39,0.18 -0.39,0.39 0,0.08 0.02,0.15 0.06,0.21 l -0.26,0.17 -0.4,-0.64 0.33,-0.27 -0.19,-0.65 0.59,0.33 0.5,-0.38 -0.4,-0.49 -0.65,0.2 0.33,-0.59 -0.38,-0.5 -0.49,0.4 0.19,0.65 -0.59,-0.33 -0.5,0.38 0.4,0.49 0.65,-0.19 -0.33,0.59 0.27,0.35 -0.57,0.59 -0.48,-0.4 c 0.05,-0.07 0.09,-0.15 0.09,-0.24 0,-0.22 -0.18,-0.39 -0.39,-0.39 -0.21,0 -0.39,0.18 -0.39,0.39 0,0.11 0.04,0.2 0.11,0.27 l -0.34,0.34 -0.88,-0.5 0.07,-0.93 0.01,-0.1 0.82,1.02 V 9.13 h -0.77 l 0.19,-2.45 c 0.22,0 0.54,0 0.86,0 z m -2.72,5.9 c 0,0.19 -0.15,0.34 -0.34,0.34 -0.19,0 -0.34,-0.15 -0.34,-0.34 0,-0.19 0.15,-0.34 0.34,-0.34 0.19,0 0.34,0.15 0.34,0.34 z m -1.06,0.06 c 0,0.2 -0.18,0.36 -0.38,0.37 l -0.77,0.04 c -0.01,0 -0.01,0 -0.02,0 -0.21,0 -0.39,-0.15 -0.4,-0.35 0,-0.01 0,-0.01 0,-0.02 0,-0.2 0.18,-0.36 0.38,-0.37 l 0.77,-0.04 c 0.01,0 0.01,0 0.02,0 0.21,0 0.39,0.15 0.4,0.35 v 0 c 0,0.01 0,0.02 0,0.02 z m -1.81,0.19 c 0,0.19 -0.15,0.34 -0.34,0.34 -0.19,0 -0.34,-0.15 -0.34,-0.34 0,-0.19 0.15,-0.34 0.34,-0.34 0.19,0 0.34,0.15 0.34,0.34 z m 3.34,-0.26 c 0,-0.21 0.19,-0.37 0.41,-0.37 h 0.77 c 0.22,0 0.4,0.16 0.41,0.37 0,0.21 -0.19,0.37 -0.41,0.37 h -0.77 c -0.23,0 -0.41,-0.16 -0.41,-0.37 z m -4.79,0.72 c -0.04,-0.09 -0.07,-0.21 -0.07,-0.35 0,0 0,-0.01 0,-0.01 0,-0.14 0.03,-0.27 0.07,-0.35 0.04,-0.09 0.08,-0.11 0.09,-0.1 v 0 c 0.01,0 0.05,0.03 0.09,0.1 0.04,0.09 0.07,0.21 0.07,0.35 0,0 0,0 0,0.01 0,0.14 -0.03,0.27 -0.07,0.35 -0.04,0.09 -0.08,0.11 -0.09,0.1 -0.01,0.01 -0.05,-0.01 -0.09,-0.1 z m 11.25,-0.35 c 0,0.14 -0.03,0.27 -0.07,0.35 -0.04,0.09 -0.09,0.11 -0.09,0.11 v 0 c 0,0 -0.05,-0.02 -0.09,-0.1 -0.04,-0.08 -0.07,-0.21 -0.07,-0.35 0,0 0,0 0,0 v 0 c 0,-0.14 0.03,-0.27 0.07,-0.36 0.03,-0.08 0.08,-0.1 0.09,-0.1 v 0 c 0,0 0.05,0.02 0.09,0.1 0.04,0.08 0.07,0.21 0.07,0.35 0,0 0,0 0,0 z"
   id="path114"
   inkscape:connector-curvature="0"
   style="fill:#ffffff" />
	</g>
	<g
   id="g148">
		<g
   id="g122">
			<g
   id="g120">
				<polygon
   class="st0"
   points="16.98,14.07 16.1,13.87 16.1,14.26 "
   id="polygon118"
   style="fill:#ffffff" />
			</g>
		</g>
		<g
   id="g128">
			<g
   id="g126">
				<polygon
   class="st0"
   points="14.86,14.08 13.97,13.92 13.98,14.3 "
   id="polygon124"
   style="fill:#ffffff" />
			</g>
		</g>
		<g
   id="g134">
			<g
   id="g132">
				<polygon
   class="st0"
   points="19.12,14.12 18.25,13.91 18.24,14.29 "
   id="polygon130"
   style="fill:#ffffff" />
			</g>
		</g>
		<g
   id="g140">
			<g
   id="g138">
				<polygon
   class="st0"
   points="21.12,14.26 20.25,14 20.23,14.38 "
   id="polygon136"
   style="fill:#ffffff" />
			</g>
		</g>
		<g
   id="g146">
			<g
   id="g144">
				<polygon
   class="st0"
   points="12.85,14.18 11.96,14.06 11.98,14.44 "
   id="polygon142"
   style="fill:#ffffff" />
			</g>
		</g>
	</g>
	<g
   id="g152">
		<path
   class="st0"
   d="M 14.91,7.85 C 14.87,7.73 14.75,7.66 14.62,7.7 14.6,7.71 14.59,7.72 14.57,7.73 c 0,-0.02 0.01,-0.04 0.01,-0.06 0,-0.12 -0.1,-0.23 -0.23,-0.23 -0.13,0 -0.23,0.1 -0.23,0.23 0,0.02 0.01,0.04 0.01,0.06 C 14.11,7.72 14.1,7.71 14.08,7.7 13.96,7.66 13.83,7.73 13.79,7.85 c -0.04,0.12 0.03,0.25 0.15,0.29 0.02,0.01 0.04,0.01 0.06,0.01 0,0.01 -0.02,0.02 -0.03,0.03 -0.08,0.1 -0.05,0.24 0.05,0.32 0.1,0.08 0.24,0.05 0.32,-0.05 0.01,-0.02 0.02,-0.03 0.02,-0.05 0.01,0.02 0.01,0.04 0.02,0.05 0.08,0.1 0.22,0.12 0.32,0.05 0.1,-0.07 0.12,-0.22 0.05,-0.32 -0.01,-0.02 -0.03,-0.03 -0.04,-0.04 0.02,0 0.04,0 0.06,-0.01 0.11,-0.03 0.18,-0.16 0.14,-0.28 z"
   id="path150"
   inkscape:connector-curvature="0"
   style="fill:#ffffff" />
	</g>
	<g
   id="g156">
		<path
   class="st0"
   d="M 19.3,7.85 C 19.26,7.73 19.14,7.66 19.01,7.7 c -0.02,0.01 -0.03,0.02 -0.05,0.03 0,-0.02 0.01,-0.04 0.01,-0.06 0,-0.12 -0.1,-0.23 -0.23,-0.23 -0.13,0 -0.23,0.1 -0.23,0.23 0,0.02 0.01,0.04 0.01,0.06 C 18.5,7.72 18.49,7.71 18.47,7.7 18.35,7.66 18.22,7.73 18.18,7.85 c -0.04,0.12 0.03,0.25 0.14,0.29 0.02,0.01 0.04,0.01 0.06,0.01 -0.01,0.01 -0.03,0.02 -0.04,0.04 -0.08,0.1 -0.05,0.24 0.05,0.32 0.1,0.08 0.24,0.05 0.32,-0.05 0.01,-0.02 0.02,-0.03 0.02,-0.05 0.01,0.02 0.01,0.04 0.02,0.05 0.08,0.1 0.22,0.12 0.32,0.05 0.1,-0.07 0.12,-0.22 0.05,-0.32 -0.01,-0.02 -0.03,-0.03 -0.04,-0.04 0.02,0 0.04,0 0.06,-0.01 0.13,-0.04 0.19,-0.17 0.16,-0.29 z"
   id="path154"
   inkscape:connector-curvature="0"
   style="fill:#ffffff" />
	</g>
	<g
   id="g162">
		<path
   class="st0"
   d="m 65.51,18.18 v 4.43 h 1.63 c 0.32,0 0.6,-0.03 0.85,-0.09 0.24,-0.06 0.45,-0.16 0.65,-0.29 0.3,-0.2 0.53,-0.46 0.69,-0.78 0.16,-0.32 0.25,-0.67 0.25,-1.05 0,-0.38 -0.08,-0.73 -0.24,-1.05 -0.16,-0.32 -0.4,-0.58 -0.69,-0.78 -0.2,-0.13 -0.41,-0.23 -0.65,-0.29 -0.24,-0.06 -0.52,-0.09 -0.84,-0.09 z m 2.91,1.03 c 0.31,0.29 0.47,0.68 0.47,1.18 0,0.5 -0.16,0.89 -0.47,1.18 C 68.11,21.86 67.68,22 67.13,22 h -1 v -3.22 h 1 c 0.55,0 0.98,0.15 1.29,0.43 m -7.43,3.39 v -3.44 l 2.9,3.44 h 0.56 v -4.43 h -0.63 v 3.44 l -2.91,-3.44 h -0.55 v 4.43 c 0.01,0 0.63,0 0.63,0 z m -4.72,0 0.56,-1.3 h 1.89 l 0.57,1.3 h 0.65 L 58,18.18 h -0.46 l -1.92,4.43 h 0.65 z m 1.49,-3.47 0.7,1.59 H 57.08 Z M 55.14,22.6 V 22.03 H 53.03 V 18.18 H 52.4 v 4.43 c 0.01,-0.01 2.74,-0.01 2.74,-0.01 z m -5,0 v -3.85 h 1.63 v -0.58 h -3.88 v 0.58 h 1.63 v 3.85 z m -7.17,-1.34 c 0.12,0.28 0.29,0.53 0.52,0.75 0.22,0.21 0.47,0.38 0.76,0.49 0.29,0.12 0.59,0.18 0.9,0.18 0.32,0 0.63,-0.05 0.91,-0.17 0.28,-0.11 0.54,-0.28 0.77,-0.5 0.22,-0.21 0.39,-0.45 0.51,-0.73 0.12,-0.28 0.18,-0.57 0.18,-0.87 0,-0.32 -0.06,-0.62 -0.18,-0.89 -0.12,-0.27 -0.29,-0.52 -0.52,-0.75 -0.22,-0.22 -0.47,-0.38 -0.76,-0.49 -0.29,-0.11 -0.59,-0.17 -0.91,-0.17 -0.31,0 -0.62,0.06 -0.9,0.17 -0.29,0.11 -0.54,0.28 -0.77,0.5 -0.22,0.21 -0.39,0.46 -0.51,0.74 -0.12,0.28 -0.18,0.57 -0.18,0.86 0,0.31 0.06,0.61 0.18,0.88 m 0.62,-1.52 c 0.09,-0.21 0.2,-0.39 0.36,-0.54 0.16,-0.16 0.35,-0.28 0.56,-0.37 0.21,-0.09 0.42,-0.13 0.64,-0.13 0.23,0 0.44,0.04 0.65,0.13 0.2,0.09 0.38,0.21 0.54,0.37 0.16,0.17 0.29,0.35 0.37,0.55 0.09,0.2 0.13,0.42 0.13,0.64 0,0.23 -0.04,0.44 -0.13,0.65 -0.09,0.2 -0.21,0.38 -0.36,0.54 -0.16,0.16 -0.34,0.29 -0.55,0.37 -0.2,0.09 -0.42,0.12 -0.65,0.12 -0.23,0 -0.44,-0.04 -0.65,-0.13 -0.21,-0.09 -0.39,-0.21 -0.54,-0.36 -0.16,-0.16 -0.28,-0.34 -0.36,-0.54 -0.09,-0.2 -0.13,-0.42 -0.13,-0.65 0,-0.22 0.04,-0.44 0.12,-0.65 m -2.19,2.21 c -0.26,0.09 -0.53,0.13 -0.78,0.13 -0.5,0 -0.92,-0.16 -1.25,-0.48 -0.33,-0.32 -0.5,-0.72 -0.5,-1.2 0,-0.48 0.17,-0.89 0.51,-1.21 0.34,-0.32 0.76,-0.48 1.28,-0.48 0.23,0 0.47,0.04 0.72,0.11 0.25,0.07 0.51,0.19 0.79,0.34 V 18.47 C 41.9,18.35 41.65,18.26 41.4,18.2 c -0.24,-0.06 -0.49,-0.09 -0.74,-0.09 -0.36,0 -0.68,0.05 -0.98,0.16 -0.29,0.11 -0.56,0.28 -0.79,0.5 -0.22,0.21 -0.39,0.45 -0.51,0.73 -0.12,0.28 -0.18,0.57 -0.18,0.87 0,0.39 0.09,0.76 0.27,1.09 0.18,0.33 0.44,0.61 0.77,0.82 0.2,0.13 0.42,0.23 0.65,0.3 0.23,0.07 0.47,0.1 0.72,0.1 0.26,0 0.53,-0.03 0.8,-0.11 0.27,-0.07 0.54,-0.17 0.79,-0.31 v -0.71 c -0.26,0.18 -0.53,0.31 -0.8,0.4 m -5.72,0.63 c 0.19,0.07 0.41,0.1 0.65,0.1 0.38,0 0.69,-0.11 0.94,-0.33 0.24,-0.22 0.36,-0.5 0.36,-0.84 0,-0.3 -0.07,-0.55 -0.2,-0.75 -0.13,-0.2 -0.41,-0.43 -0.83,-0.7 -0.02,-0.01 -0.05,-0.03 -0.1,-0.06 -0.52,-0.33 -0.78,-0.6 -0.78,-0.81 0,-0.15 0.07,-0.28 0.19,-0.38 0.12,-0.1 0.29,-0.15 0.48,-0.15 0.16,0 0.33,0.03 0.49,0.11 0.16,0.07 0.34,0.19 0.54,0.34 V 18.4 c -0.17,-0.1 -0.34,-0.18 -0.5,-0.23 -0.16,-0.05 -0.33,-0.08 -0.51,-0.08 -0.38,0 -0.7,0.11 -0.94,0.33 -0.24,0.22 -0.36,0.51 -0.36,0.85 0,0.24 0.07,0.46 0.19,0.63 0.13,0.18 0.44,0.43 0.94,0.75 0.32,0.2 0.53,0.36 0.61,0.47 0.09,0.11 0.13,0.23 0.13,0.38 0,0.18 -0.07,0.31 -0.19,0.42 -0.13,0.1 -0.3,0.15 -0.52,0.15 -0.21,0 -0.4,-0.05 -0.58,-0.15 -0.18,-0.1 -0.37,-0.26 -0.57,-0.49 v 0.83 c 0.19,0.15 0.37,0.26 0.56,0.32"
   id="path158"
   inkscape:connector-curvature="0"
   style="fill:#ffffff" />
		<path
   class="st0"
   d="m 69.48,16.3 v -1.27 h -2.92 v -1.62 h 2.71 V 12.15 H 66.56 V 10.77 H 69.4 V 9.51 h -4.54 v 6.79 z m -5.62,-2.15 c -0.41,0.28 -0.82,0.49 -1.23,0.64 -0.41,0.14 -0.82,0.21 -1.23,0.21 -0.63,0 -1.14,-0.19 -1.52,-0.57 -0.37,-0.38 -0.56,-0.88 -0.56,-1.52 0,-0.65 0.2,-1.16 0.59,-1.54 0.39,-0.37 0.93,-0.56 1.62,-0.56 0.38,0 0.76,0.06 1.14,0.18 0.38,0.12 0.76,0.3 1.13,0.54 V 9.95 C 63.42,9.76 63.03,9.62 62.64,9.53 62.25,9.44 61.84,9.39 61.43,9.39 c -1.15,0 -2.08,0.32 -2.79,0.97 -0.71,0.65 -1.05,1.49 -1.05,2.55 0,0.5 0.09,0.97 0.27,1.41 0.18,0.44 0.44,0.82 0.78,1.14 0.33,0.31 0.72,0.55 1.17,0.71 0.44,0.16 0.93,0.24 1.46,0.24 0.47,0 0.92,-0.06 1.34,-0.17 0.43,-0.11 0.84,-0.29 1.25,-0.52 z M 56.55,9.51 H 54.8 v 6.79 h 1.75 z M 53.98,16.3 V 14.99 H 51.06 V 9.51 h -1.7 V 16.3 Z M 41.26,14.31 c 0.18,0.43 0.44,0.81 0.79,1.14 0.35,0.33 0.74,0.57 1.17,0.73 0.43,0.16 0.92,0.24 1.45,0.24 0.54,0 1.02,-0.08 1.46,-0.24 0.44,-0.16 0.83,-0.41 1.18,-0.73 0.35,-0.33 0.62,-0.71 0.79,-1.14 0.18,-0.43 0.27,-0.89 0.27,-1.39 0,-0.51 -0.09,-0.97 -0.27,-1.4 C 47.92,11.09 47.66,10.71 47.31,10.37 46.97,10.05 46.58,9.81 46.14,9.65 45.7,9.48 45.21,9.4 44.67,9.4 c -0.53,0 -1.02,0.08 -1.45,0.24 -0.44,0.16 -0.82,0.4 -1.17,0.72 -0.35,0.34 -0.62,0.72 -0.8,1.15 -0.18,0.43 -0.27,0.9 -0.27,1.4 0.01,0.5 0.09,0.97 0.28,1.4 m 2.02,-2.9 c 0.36,-0.39 0.83,-0.59 1.39,-0.59 0.57,0 1.03,0.2 1.39,0.59 0.36,0.39 0.55,0.89 0.55,1.5 0,0.6 -0.18,1.1 -0.55,1.49 -0.36,0.39 -0.83,0.58 -1.39,0.58 -0.56,0 -1.03,-0.2 -1.39,-0.58 -0.36,-0.39 -0.55,-0.89 -0.55,-1.49 0,-0.61 0.19,-1.1 0.55,-1.5 m -6.41,4.89 v -2.66 h 0.66 c 0.95,0 1.66,-0.18 2.13,-0.52 0.47,-0.35 0.71,-0.88 0.71,-1.58 0,-0.69 -0.22,-1.2 -0.66,-1.53 -0.44,-0.33 -1.12,-0.5 -2.04,-0.5 h -2.5 v 6.79 c -0.02,0 1.7,0 1.7,0 z m 0,-3.97 v -1.55 h 0.81 c 0.3,0 0.53,0.07 0.69,0.2 0.16,0.13 0.24,0.33 0.24,0.57 0,0.26 -0.08,0.46 -0.23,0.58 -0.15,0.13 -0.39,0.19 -0.71,0.19 h -0.8 z"
   id="path160"
   inkscape:connector-curvature="0"
   style="fill:#ffffff" />
	</g>
	<g
   id="g186">
		<path
   class="st0"
   d="m 35.14,28.19 h 1.48 c 0.34,0 0.6,0.1 0.8,0.29 0.2,0.2 0.3,0.43 0.3,0.69 0,0.27 -0.1,0.51 -0.3,0.71 -0.2,0.2 -0.46,0.3 -0.8,0.3 h -0.66 v 1.34 h -0.83 z m 0.83,0.61 v 0.77 h 0.38 c 0.34,0 0.52,-0.13 0.52,-0.38 0,-0.14 -0.04,-0.24 -0.14,-0.3 -0.09,-0.05 -0.25,-0.09 -0.47,-0.09 z"
   id="path164"
   inkscape:connector-curvature="0"
   style="fill:#ffffff" />
		<path
   class="st0"
   d="m 39.92,28.15 c 0.57,0 1.03,0.17 1.38,0.51 0.35,0.34 0.53,0.74 0.53,1.2 0,0.46 -0.18,0.86 -0.53,1.2 -0.35,0.34 -0.81,0.51 -1.37,0.51 -0.56,0 -1.02,-0.17 -1.38,-0.51 -0.36,-0.34 -0.53,-0.74 -0.53,-1.2 0,-0.46 0.18,-0.86 0.53,-1.2 0.34,-0.34 0.8,-0.51 1.37,-0.51 z m 0,2.72 c 0.32,0 0.57,-0.09 0.76,-0.28 0.19,-0.19 0.29,-0.43 0.29,-0.74 0,-0.31 -0.1,-0.55 -0.29,-0.74 -0.19,-0.19 -0.44,-0.28 -0.76,-0.28 -0.32,0 -0.57,0.09 -0.76,0.28 -0.19,0.19 -0.29,0.43 -0.29,0.74 0,0.3 0.1,0.55 0.29,0.74 0.19,0.19 0.44,0.28 0.76,0.28 z"
   id="path166"
   inkscape:connector-curvature="0"
   style="fill:#ffffff" />
		<path
   class="st0"
   d="m 43.12,28.19 v 3.33 h -0.83 v -3.33 z"
   id="path168"
   inkscape:connector-curvature="0"
   style="fill:#ffffff" />
		<path
   class="st0"
   d="m 46.27,30.91 v 0.61 h -2.54 v -3.33 h 0.83 v 2.72 z"
   id="path170"
   inkscape:connector-curvature="0"
   style="fill:#ffffff" />
		<path
   class="st0"
   d="m 49.22,30.91 v 0.61 h -2.45 v -3.33 h 2.42 V 28.8 H 47.6 v 0.7 h 1.52 v 0.61 H 47.6 v 0.8 h 1.62 z"
   id="path172"
   inkscape:connector-curvature="0"
   style="fill:#ffffff" />
		<path
   class="st0"
   d="m 51.86,28.19 1.48,3.33 h -0.89 l -0.27,-0.66 h -1.49 l -0.25,0.66 h -0.88 l 1.34,-3.33 z m 0.07,2.09 -0.54,-1.29 -0.49,1.29 z"
   id="path174"
   inkscape:connector-curvature="0"
   style="fill:#ffffff" />
		<path
   class="st0"
   d="m 55.99,28.4 v 0.65 c -0.44,-0.2 -0.79,-0.3 -1.05,-0.3 -0.15,0 -0.27,0.02 -0.36,0.08 -0.09,0.05 -0.13,0.12 -0.13,0.2 0,0.07 0.03,0.12 0.1,0.18 0.07,0.06 0.22,0.13 0.46,0.22 0.25,0.09 0.44,0.18 0.59,0.25 0.15,0.08 0.27,0.19 0.38,0.33 0.11,0.14 0.16,0.32 0.16,0.54 0,0.31 -0.12,0.55 -0.35,0.74 -0.23,0.18 -0.54,0.27 -0.92,0.27 -0.41,0 -0.81,-0.11 -1.2,-0.32 v -0.72 c 0.22,0.15 0.42,0.26 0.59,0.33 0.17,0.07 0.35,0.1 0.55,0.1 0.33,0 0.49,-0.1 0.49,-0.31 0,-0.07 -0.03,-0.14 -0.1,-0.2 -0.07,-0.06 -0.22,-0.14 -0.47,-0.23 -0.25,-0.09 -0.45,-0.17 -0.59,-0.25 -0.14,-0.08 -0.27,-0.19 -0.37,-0.33 -0.11,-0.14 -0.16,-0.32 -0.16,-0.54 0,-0.29 0.11,-0.52 0.35,-0.69 0.23,-0.18 0.54,-0.26 0.92,-0.26 0.34,0.01 0.71,0.09 1.11,0.26 z"
   id="path176"
   inkscape:connector-curvature="0"
   style="fill:#ffffff" />
		<path
   class="st0"
   d="m 58.78,28.17 h 0.34 l 1.49,3.35 h -0.49 l -0.44,-0.99 h -1.42 l -0.42,0.99 h -0.49 z m 0.7,1.94 -0.54,-1.21 -0.5,1.21 z"
   id="path178"
   inkscape:connector-curvature="0"
   style="fill:#ffffff" />
		<path
   class="st0"
   d="m 61.1,28.19 h 0.48 v 2.89 h 1.5 v 0.43 H 61.1 Z"
   id="path180"
   inkscape:connector-curvature="0"
   style="fill:#ffffff" />
		<path
   class="st0"
   d="m 64.76,31.51 h -1.13 v -3.33 h 0.87 c 0.27,0 0.49,0.04 0.64,0.11 0.15,0.08 0.27,0.18 0.35,0.31 0.08,0.13 0.12,0.28 0.12,0.45 0,0.33 -0.17,0.56 -0.51,0.7 0.24,0.04 0.44,0.15 0.58,0.3 0.14,0.15 0.22,0.34 0.22,0.55 0,0.17 -0.04,0.32 -0.13,0.45 -0.09,0.13 -0.22,0.24 -0.38,0.33 -0.17,0.09 -0.38,0.13 -0.63,0.13 z m -0.24,-2.9 h -0.41 v 1 h 0.32 c 0.25,0 0.44,-0.05 0.54,-0.14 0.11,-0.1 0.16,-0.22 0.16,-0.37 0,-0.33 -0.21,-0.49 -0.61,-0.49 z m 0.03,1.43 h -0.44 v 1.05 h 0.47 c 0.26,0 0.44,-0.02 0.53,-0.06 0.09,-0.04 0.17,-0.1 0.22,-0.19 0.05,-0.09 0.09,-0.18 0.09,-0.27 0,-0.1 -0.03,-0.19 -0.09,-0.28 -0.06,-0.09 -0.14,-0.15 -0.25,-0.19 -0.12,-0.04 -0.29,-0.06 -0.53,-0.06 z"
   id="path182"
   inkscape:connector-curvature="0"
   style="fill:#ffffff" />
		<path
   class="st0"
   d="m 67.67,28.17 h 0.34 l 1.49,3.35 h -0.49 l -0.44,-0.99 h -1.42 l -0.42,0.99 h -0.49 z m 0.7,1.94 -0.54,-1.21 -0.5,1.21 z"
   id="path184"
   inkscape:connector-curvature="0"
   style="fill:#ffffff" />
	</g>
	<g
   id="g190">
		<rect
   x="35.16"
   y="25.16"
   class="st0"
   width="34.32"
   height="0.44"
   id="rect188"
   style="fill:#ffffff" />
	</g>
</g>
</svg>